<?xml version="1.0" encoding="utf-8"?>
<!DOCTYPE svg PUBLIC "-//W3C//DTD SVG 1.0//EN" "http://www.w3.org/TR/2001/REC-SVG-20010904/DTD/svg10.dtd">
<svg version="1.0" xmlns="http://www.w3.org/2000/svg" width="804px" height="792px" viewBox="0 0 804 792" preserveAspectRatio="xMidYMid meet">
 <g fill="#a3e9fc">
  <path d="M728 613.20 c-4.20 -1.50 -35.75 -12.35 -43 -14.70 -1.50 -0.50 -10.05 -3.45 -19 -6.50 -8.95 -3.10 -17.15 -5.90 -18.25 -6.25 -1.10 -0.40 -10.30 -3.55 -20.50 -7 -10.15 -3.45 -22.55 -7.65 -27.50 -9.30 -9.75 -3.30 -13.90 -5.20 -26.35 -12.40 -4.50 -2.60 -11.20 -6.45 -14.90 -8.60 -3.70 -2.10 -10.50 -6 -15.10 -8.60 l-8.40 -4.75 -4.60 -0.30 c-2.55 -0.15 -10.10 -0.45 -16.75 -0.60 l-12.10 -0.35 -0.15 -1.15 -0.15 -1.15 -3.75 1.30 c-3.65 1.25 -3.80 1.30 -10 0.75 -3.45 -0.35 -14.90 -0.85 -25.45 -1.15 -15.30 -0.45 -19.25 -0.45 -19.55 0.05 -0.30 0.50 -2.35 0.50 -9.80 0.05 -5.20 -0.30 -12.25 -0.65 -15.70 -0.80 -3.45 -0.15 -8.40 -0.50 -11 -0.75 -2.60 -0.30 -11.05 -0.85 -18.75 -1.25 -7.70 -0.40 -14.80 -0.85 -15.75 -1 -0.95 -0.15 -8.20 -0.60 -16.05 -1 l-14.25 -0.75 -14.50 -6.30 c-7.95 -3.40 -15.10 -6.55 -15.95 -6.90 -2.60 -1.20 -5.85 -2.60 -11 -4.80 -4.35 -1.85 -22.75 -9.85 -27 -11.75 -0.80 -0.35 -4.20 -1.80 -7.50 -3.20 -3.30 -1.45 -6.75 -2.90 -7.60 -3.30 -0.90 -0.40 -2.40 -1.05 -3.25 -1.45 -0.90 -0.40 -4 -1.75 -6.85 -3 -2.90 -1.25 -5.70 -2.30 -6.25 -2.30 -0.60 0 -3.75 -1.95 -7.05 -4.35 -3.30 -2.40 -6.80 -4.90 -7.80 -5.60 -1 -0.70 -5.15 -3.65 -9.20 -6.55 -4 -2.90 -9.10 -6.50 -11.25 -8 -2.15 -1.50 -5 -3.55 -6.30 -4.50 -1.35 -0.95 -8.40 -5.95 -15.70 -11.15 -8.40 -5.95 -13.30 -9.75 -13.40 -10.40 -0.10 -0.50 -0.35 -0.95 -0.60 -0.95 -0.25 0 -0.60 -0.85 -0.75 -1.85 -0.40 -2.35 -1.75 -6.75 -2.25 -7.40 -0.25 -0.30 -1.10 -2.75 -1.95 -5.50 -2.55 -8.50 -2.70 -8.90 -3.70 -9.15 -0.75 -0.20 -0.90 -0.60 -0.75 -2.15 0.10 -1.35 0 -1.95 -0.45 -1.95 -0.40 0 -0.65 -0.70 -0.65 -1.95 0 -1.10 -0.35 -2.30 -0.75 -2.75 -0.40 -0.40 -0.75 -1.50 -0.75 -2.45 0 -1 -0.25 -1.85 -0.60 -1.95 -0.30 -0.10 -0.75 -1.30 -0.95 -2.70 -0.20 -1.35 -0.80 -3.80 -1.35 -5.45 -0.55 -1.65 -1.50 -4.70 -2.10 -6.75 -2.30 -8 -3 -10.40 -4 -14 -0.60 -2.05 -1.65 -5.65 -2.35 -8 -1.15 -3.80 -1.25 -4.80 -1 -9.55 0.20 -2.90 0.45 -5.65 0.65 -6.10 0.25 -0.70 0 -0.85 -1.25 -0.85 -1.05 0 -1.55 -0.25 -1.55 -0.75 0 -0.40 -0.30 -0.75 -0.70 -0.75 -0.45 0 -0.75 -1.05 -1 -3.50 -0.25 -2.55 -0.55 -3.50 -1.10 -3.50 -0.85 0 -0.85 0.50 0.05 -9.25 0.40 -4.40 0.75 -8.85 0.75 -9.85 0 -1.75 -0.10 -1.90 -1.45 -1.90 l-1.45 0 -0.30 -4.35 c-0.60 -7.95 -0.75 -8.65 -1.90 -8.65 -1 0 -1.05 -0.20 -0.75 -3.35 0.60 -6.15 1.35 -13.35 1.60 -15.25 0.25 -1.65 0.15 -1.90 -0.75 -1.90 -0.70 0 -1 -0.35 -1 -1.20 0 -0.65 -0.30 -1.30 -0.65 -1.45 -0.75 -0.30 -2.10 -8.35 -1.60 -9.80 0.20 -0.65 0.10 -1.05 -0.30 -1.05 -0.40 0 -0.50 -0.75 -0.35 -2.50 0.15 -1.45 0.05 -2.50 -0.25 -2.50 -0.25 0 -0.35 -0.90 -0.25 -2 0.10 -1.10 0.05 -2 -0.15 -2 -0.15 0 -0.45 -2.40 -0.65 -5.35 -0.20 -3 -0.60 -5.50 -0.90 -5.70 -0.35 -0.20 -0.45 -1.15 -0.25 -2.40 0.15 -1.15 0.05 -2.05 -0.20 -2.05 -0.25 0 -0.45 -0.55 -0.45 -1.25 0 -0.90 -0.25 -1.25 -1 -1.25 -0.85 0 -1 -0.35 -1 -2 0 -1.10 0.25 -2 0.50 -2 0.30 0 0.50 -0.85 0.50 -1.85 0 -1.75 0.65 -6.55 1.30 -9.75 0.20 -1.10 0.10 -1.40 -0.55 -1.40 -1.40 0 -2.15 -1.25 -2.60 -4.30 -0.35 -2.55 -0.55 -2.95 -1.55 -3.10 -0.90 -0.15 -1.10 -0.50 -1.10 -1.90 0 -1.35 0.20 -1.70 1 -1.70 0.65 0 1 -0.35 1 -1 0 -0.65 -0.35 -1 -1 -1 -0.80 0 -1 -0.35 -1 -1.60 0 -0.85 0.35 -1.95 0.80 -2.45 0.75 -0.85 0.75 -1.55 -0.25 -9.30 -0.60 -4.60 -1.40 -11.20 -1.80 -14.65 -0.40 -3.45 -1.10 -8.40 -1.55 -11.05 -0.40 -2.65 -0.70 -5.70 -0.60 -6.75 0.15 -1.80 0.30 -1.95 1.75 -2.10 1.10 -0.10 3.15 0.60 6.75 2.30 2.85 1.40 10.55 5 17.15 8.10 6.60 3.10 18.20 8.55 25.75 12.10 7.55 3.60 17.60 8.30 22.25 10.50 4.70 2.20 10.80 5.10 13.55 6.45 2.80 1.35 5.30 2.45 5.60 2.45 0.80 0 4.35 3 4.70 4.05 0.20 0.55 7.55 12.95 16.35 27.60 30.95 51.60 37.25 62.15 38.80 64.85 0.90 1.50 3.85 6.45 6.60 11 2.75 4.55 11.30 18.85 19.05 31.80 7.75 12.95 14.45 23.90 14.95 24.30 0.50 0.45 4.85 3.50 9.65 6.85 4.80 3.30 12 8.30 16 11.10 4 2.75 8.95 6.20 11 7.65 13.50 9.35 55.60 38.65 62.25 43.30 3.05 2.10 9.30 6.45 13.90 9.70 l8.40 5.85 4.60 0.70 c2.55 0.35 6.65 0.90 9.10 1.20 2.50 0.30 7.90 1 12 1.55 4.15 0.55 14.55 1.90 23.15 3 8.60 1.10 17 2.20 18.75 2.45 1.70 0.30 6.20 0.85 9.95 1.35 l6.90 0.80 4.60 -3.15 c2.55 -1.70 5.80 -4 7.25 -5.05 9.15 -6.70 36.10 -24.25 42.10 -27.40 2.75 -1.50 3.65 -2.35 7 -6.85 2.10 -2.85 4.45 -6.20 5.25 -7.50 5.45 -8.80 17.85 -27.70 20.50 -31.15 5.45 -7.20 9.65 -11.75 12.55 -13.55 2.45 -1.55 7.95 -1.20 20.75 1.25 2.05 0.40 8.60 1.65 14.50 2.80 10.40 2 20.75 4 41 8 5.35 1.05 14.60 2.85 20.50 4 5.90 1.15 12.80 2.50 15.25 3.05 2.50 0.50 5.50 1.10 6.75 1.25 3.35 0.50 4 1 4 2.95 0 1.85 2.45 -0.40 -33.75 31.20 -7.70 6.75 -14.10 12.40 -14.25 12.55 -0.15 0.15 -2.05 1.85 -4.25 3.75 -14.15 12.15 -15.55 13.60 -20.20 20.70 -5.45 8.40 -11.45 18.65 -14.15 24.30 l-2 4.25 4.90 5.30 c2.70 2.95 5.40 5.55 6.05 5.85 0.65 0.30 1.15 0.70 1.15 0.90 0 0.45 0.75 1.20 16.75 16.70 7.70 7.40 14.75 14.30 15.70 15.25 1.10 1.15 3.75 6.05 7.55 14.15 3.25 6.80 6.10 12.65 6.35 13 0.60 0.75 2.65 5.05 2.65 5.50 0 0.15 2.05 4.55 4.55 9.70 2.50 5.15 6 12.35 7.70 15.90 1.70 3.60 4.85 10.05 6.95 14.35 2.55 5.30 3.80 8.40 3.80 9.60 0 1.80 0 1.80 -2.10 1.75 -1.20 0 -4.30 -0.80 -6.90 -1.75z m-29 -24.35 c0 -0.10 -0.65 -0.80 -1.50 -1.60 -1.40 -1.35 -1.50 -1.35 -1.50 -0.40 0 0.95 0.65 1.40 2.90 2.10 0.05 0.05 0.10 0 0.10 -0.10z m-229.35 -64.95 c-0.30 -2.35 -1.35 -3.30 -1.95 -1.70 -0.20 0.55 1.80 4.50 2.10 4.15 0.05 -0.05 0 -1.15 -0.15 -2.45z m25.35 -3.10 c0 -0.10 -0.35 -0.45 -0.75 -0.80 -0.60 -0.50 -0.75 -0.50 -0.75 0.20 0 0.45 0.35 0.80 0.75 0.80 0.40 0 0.75 -0.10 0.75 -0.20z m-93 -60.55 c-0.35 -0.40 -0.85 -0.60 -1.10 -0.45 -0.30 0.20 -0.25 0.50 0.15 0.75 1.10 0.70 1.65 0.50 0.95 -0.30z m306.95 -51.20 l2.10 -0.90 -1.90 -0.35 c-2.90 -0.45 -3.15 -0.40 -3.15 0.95 0 1.50 0.25 1.55 2.95 0.30z m-518.45 -23.05 c2.15 -4.25 2.15 -4.25 -0.20 -6.15 l-2.10 -1.75 -2.15 2.65 c-1.70 2.20 -2 2.95 -1.75 4.10 0.70 3.20 0.65 3.15 2.95 3.15 2.10 0 2.30 -0.10 3.25 -2z m37.35 -99.85 c-0.55 -2.65 -1.15 -3.30 -1.65 -1.90 -0.25 0.60 1.75 5 2.10 4.60 0.05 -0.05 -0.15 -1.30 -0.45 -2.70z m-21.70 -13 c-0.45 -2.90 -0.70 -3.65 -1.20 -3.65 -1 0 -0.95 1.40 0.05 3.20 0.60 1 1.15 1.80 1.25 1.80 0.05 0 0 -0.60 -0.10 -1.35z m9.95 -0.25 c-0.30 -0.30 -0.75 -0.40 -0.95 -0.20 -0.20 0.20 -0.05 0.55 0.35 0.80 0.95 0.60 1.35 0.15 0.60 -0.60z m-1.70 -9.75 c-1.40 -2.50 -1.35 -2.40 -1.95 -1.80 -0.40 0.40 -0.10 1 1.10 2.10 0.95 0.85 1.75 1.55 1.80 1.55 0.05 0 -0.35 -0.85 -0.95 -1.85z m9.10 -1.85 c0 -0.10 -0.80 -1.50 -1.75 -3.10 -0.95 -1.60 -1.75 -2.50 -1.75 -2.05 0 0.45 -0.25 0.85 -0.50 0.85 -0.50 0 0.60 2.55 1.60 3.90 0.45 0.55 2.40 0.90 2.40 0.40z m-16.95 -10.15 c-0.50 -0.85 -0.50 -0.80 -0.55 0.15 0 1.15 0.65 2.05 0.90 1.25 0.10 -0.30 -0.05 -0.90 -0.35 -1.40z m-14.35 -2.60 c-0.95 -1.65 -1.45 -1.90 -1.95 -1.05 -0.30 0.45 2.30 3.10 2.65 2.75 0.10 -0.10 -0.20 -0.85 -0.70 -1.70z m23.25 -0.65 c-0.30 -0.65 -1.45 -2.60 -2.50 -4.40 -1.85 -3.15 -2 -3.30 -3.65 -3.10 l-1.70 0.20 0.95 1.65 c1.45 2.45 5.70 6.75 6.65 6.75 0.70 0 0.75 -0.15 0.25 -1.10z m-18.55 -9.85 c-0.90 -1.55 -1.25 -1.85 -1.80 -1.40 -0.55 0.45 -0.40 0.80 1 1.95 0.90 0.75 1.70 1.40 1.80 1.40 0.05 0 -0.40 -0.90 -1 -1.95z m-11.90 0 c0 -0.55 -0.20 -1.15 -0.50 -1.30 -0.30 -0.20 -0.50 0.25 -0.50 0.95 0 0.70 0.25 1.30 0.50 1.30 0.30 0 0.50 -0.45 0.50 -0.95z m-41.20 -2.55 c-0.25 -1.35 -0.55 -2.40 -0.60 -2.35 0 0.05 -0.20 1.15 -0.35 2.50 -0.30 2.05 -0.20 2.35 0.55 2.35 0.85 0 0.90 -0.25 0.40 -2.50z m62.20 -3.30 c0 -0.90 -5.75 -9.60 -5.90 -8.95 -0.10 0.40 -0.45 0.75 -0.75 0.75 -0.35 0 -0.90 0.20 -1.25 0.40 -1.10 0.75 2.65 5.95 5.10 7.10 2.25 1 2.80 1.15 2.80 0.70z m-16.35 -4.70 c-0.15 -0.55 -0.45 -1.15 -0.70 -1.30 -0.50 -0.30 -0.60 1.45 -0.10 1.95 0.65 0.65 1.05 0.35 0.80 -0.65z m-53.65 -24.45 c-0.70 -1.35 -0.65 -3.90 0.15 -4.20 0.30 -0.15 0.35 -0.30 0.05 -0.30 -0.25 -0.05 -1.25 0.75 -2.20 1.70 -1.55 1.60 -1.60 1.75 -0.60 1.75 0.75 0 1.10 0.30 1.10 1 0 0.65 0.35 1 1 1 0.85 0 0.95 -0.15 0.50 -0.95z"/>
 </g>
 <g fill="#f7f7f7">
  <path d="M0 396 l0 -396 402 0 402 0 0 396 0 396 -402 0 -402 0 0 -396z m349.40 247.15 c-1.05 -0.10 -2.85 -0.10 -4 0 -1.20 0.10 -0.35 0.20 1.85 0.20 2.20 0 3.15 -0.10 2.15 -0.20z m41.10 -0.40 c-0.35 -0.40 -0.80 -0.75 -1.05 -0.75 -0.25 0 -0.45 0.35 -0.45 0.75 0 0.45 0.45 0.75 1.05 0.75 0.90 0 0.95 -0.10 0.45 -0.75z m-82.10 -0.10 c-2.45 -0.10 -6.35 -0.10 -8.75 0 -2.45 0.05 -0.45 0.15 4.35 0.15 4.80 0 6.80 -0.10 4.40 -0.15z m427.10 -29.45 c0 -0.15 -1.70 -3.80 -3.80 -8.10 -2.10 -4.30 -5.25 -10.75 -6.95 -14.35 -1.70 -3.55 -5.20 -10.75 -7.70 -15.90 -2.50 -5.15 -4.55 -9.55 -4.55 -9.70 0 -0.45 -2.05 -4.75 -2.65 -5.50 -0.25 -0.35 -3.10 -6.20 -6.35 -13 -3.80 -8.10 -6.45 -13 -7.55 -14.15 -0.95 -0.95 -8 -7.85 -15.70 -15.25 -7.65 -7.45 -14.60 -14.15 -15.35 -15 -0.75 -0.80 -1.65 -1.70 -2 -2 -0.35 -0.25 -3.15 -3.10 -6.25 -6.25 -5.20 -5.25 -5.65 -5.90 -5.40 -7.25 0.65 -3.55 8.10 -17.20 16.30 -29.80 4.65 -7.10 6.05 -8.55 20.20 -20.70 2.20 -1.90 4.10 -3.60 4.25 -3.75 0.15 -0.15 6.55 -5.80 14.25 -12.55 35.30 -30.85 33.95 -29.60 33.05 -30.25 -0.45 -0.30 -2 -0.75 -3.40 -0.90 -1.40 -0.20 -4.50 -0.80 -6.85 -1.30 -2.35 -0.50 -9.15 -1.85 -15.05 -3 -5.90 -1.15 -15.15 -2.95 -20.50 -4 -20.25 -4 -30.60 -6 -41 -8 -5.90 -1.15 -12.45 -2.40 -14.50 -2.80 -6.45 -1.25 -12.70 -2.20 -14.50 -2.20 -3.50 0 -7.85 4 -15.80 14.50 -2.65 3.45 -15.05 22.35 -20.50 31.15 -0.80 1.30 -3.15 4.65 -5.25 7.50 -3.35 4.50 -4.25 5.35 -7 6.85 -6.15 3.25 -31.60 19.85 -42.70 27.85 -9.20 6.60 -11.95 8.25 -13.50 8 -0.80 -0.10 -4.30 -0.60 -7.75 -1.05 -3.45 -0.45 -7.80 -1.05 -9.75 -1.35 -1.90 -0.25 -10.45 -1.40 -19 -2.50 -8.50 -1.05 -18.85 -2.40 -23 -2.95 -4.10 -0.55 -9.50 -1.25 -12 -1.55 -2.45 -0.30 -6.55 -0.85 -9.10 -1.20 l-4.60 -0.70 -8.40 -5.85 c-4.60 -3.25 -10.85 -7.60 -13.90 -9.70 -6.65 -4.65 -48.75 -33.95 -62.25 -43.30 -2.05 -1.45 -7 -4.90 -11 -7.65 -4 -2.80 -11.20 -7.80 -16 -11.10 -4.80 -3.35 -9.15 -6.40 -9.65 -6.85 -0.50 -0.40 -7.20 -11.35 -14.95 -24.30 -7.75 -12.95 -16.30 -27.25 -19.05 -31.80 -2.75 -4.55 -5.70 -9.50 -6.60 -11 -1.55 -2.70 -7.85 -13.25 -38.80 -64.85 -8.80 -14.65 -16.15 -27.05 -16.35 -27.60 -0.60 -1.55 -3.15 -3.35 -7.10 -5 -2.05 -0.90 -4.20 -1.90 -4.75 -2.25 -0.55 -0.35 -2.80 -1.45 -5 -2.45 -2.20 -0.95 -9.05 -4.15 -15.25 -7.10 -6.20 -2.95 -20.60 -9.75 -32 -15.10 -11.40 -5.35 -22.75 -10.70 -25.25 -11.90 -2.45 -1.20 -4.70 -2 -4.95 -1.75 -0.20 0.20 -0.05 2.60 0.40 5.35 0.45 2.70 1.15 7.70 1.55 11.15 0.40 3.45 1.15 9.75 1.70 14 1.20 9 1.30 11.85 0.40 13 -0.30 0.45 0 0.15 0.80 -0.70 l1.35 -1.50 0 1.45 c0 0.75 -0.35 1.85 -0.85 2.35 -0.75 0.85 -0.75 0.90 0.10 0.90 0.70 0 0.75 0.15 0.25 0.75 -0.40 0.45 -0.50 1.45 -0.30 2.60 0.15 1.05 0.30 2.50 0.30 3.25 0 0.80 0.25 1.40 0.55 1.40 0.30 0 0.45 0.50 0.35 1.15 -0.10 0.65 0.05 1.40 0.40 1.75 0.95 0.90 1.20 0.75 1.20 -0.70 0 -1.15 0.10 -1.20 0.75 -0.50 1 0.95 0.95 1.90 -0.30 8.20 -1.05 5.30 -1.05 9.15 0.05 9.50 0.30 0.10 0.40 0.85 0.20 1.90 -0.20 1.15 -0.10 1.70 0.30 1.70 0.40 0 0.55 0.70 0.40 2.25 -0.10 1.25 -0.05 2.25 0.10 2.25 0.40 0 1.55 10.05 1.20 10.55 -0.15 0.25 0 0.45 0.30 0.45 0.40 0 0.55 0.70 0.40 2 -0.10 1.10 0.05 2 0.30 2 0.20 0 0.30 1.10 0.20 2.50 -0.15 1.40 -0.05 2.50 0.20 2.50 0.30 0 0.40 1 0.30 2.25 -0.10 1.25 0 2.25 0.15 2.25 0.20 0 0.35 1.30 0.40 2.85 0 1.90 0.25 3.05 0.75 3.40 0.40 0.30 0.80 1.10 0.95 1.75 0.15 0.80 0.25 0.50 0.30 -0.85 0 -1.25 0.30 -2.15 0.65 -2.15 0.40 0 0.45 2.15 0.20 8.40 -0.20 4.60 -0.45 8.90 -0.50 9.60 -0.05 0.70 0.10 1.95 0.35 2.75 0.75 2.55 1.85 10.90 1.55 11.85 -0.15 0.50 -0.10 0.90 0.15 0.90 0.25 0 0.35 0.90 0.25 2 -0.20 1.75 -0.10 2 0.85 2 0.60 0 1.05 -0.30 1.05 -0.75 0 -0.40 0.25 -0.75 0.55 -0.75 0.40 0 0.45 1.85 0.15 6.65 -0.25 3.60 -0.45 8.05 -0.40 9.85 0.05 3.85 0.70 9 1.15 9 0.20 0 0.25 0.85 0.15 1.95 -0.15 1.60 0 1.95 0.85 2.20 0.80 0.20 1.05 0 1.05 -0.75 0 -0.55 0.25 -0.90 0.65 -0.75 0.75 0.25 0.65 4.40 -0.20 9.95 -0.40 2.85 -0.40 4.25 0 5.45 0.30 0.90 0.55 2.45 0.55 3.50 0 1.10 0.25 1.95 0.50 1.95 0.70 0 0.65 3.35 -0.05 3.60 -0.35 0.10 0.85 4.45 3.30 11.80 2.15 6.40 3.95 11.55 4.10 11.45 0.10 -0.10 -0.05 -0.80 -0.35 -1.55 -0.70 -1.90 -0.65 -4.30 0.15 -4.30 0.85 0 2.35 3.45 2.25 5.25 0 0.85 0.55 2.70 1.30 4.15 0.70 1.40 1.75 4.50 2.30 6.80 0.55 2.25 1.40 4.90 1.85 5.85 0.45 0.95 0.90 2.05 0.95 2.45 0.20 1.90 2.30 7.50 2.75 7.50 0.30 0 0.45 0.30 0.30 0.70 -0.25 0.65 1.05 5.70 1.95 7.75 0.20 0.45 0.40 0.90 0.45 1.05 0.05 0.15 0.25 0.60 0.40 1 1.05 2.35 2.30 6.70 2.05 7.05 -0.15 0.25 -0.05 0.45 0.25 0.45 0.30 0 0.40 0.35 0.25 0.75 -0.20 0.40 -0.05 0.75 0.20 0.75 0.30 0 0.60 0.45 0.70 0.95 0.10 0.65 5 4.45 13.40 10.40 7.30 5.20 14.35 10.20 15.70 11.15 1.30 0.95 4.15 3 6.30 4.50 2.15 1.50 7.25 5.10 11.25 8 4.05 2.90 8.30 5.95 9.45 6.75 1.20 0.85 4.65 3.30 7.70 5.50 3.10 2.20 5.90 4 6.20 4.05 0.35 0 1.05 0.10 1.50 0.10 0.55 0.05 1.50 1.30 2.35 3 0.85 1.55 1.50 2.55 1.55 2.25 0 -1 3.70 -0.80 6.10 0.35 1.20 0.50 5.85 2.55 10.40 4.55 4.55 1.95 8.95 3.85 9.75 4.20 1.70 0.75 13 5.60 14.50 6.25 0.55 0.20 2 0.85 3.25 1.40 5.35 2.35 19.45 8.50 44.50 19.35 l7.25 3.15 6.50 0.35 c3.60 0.15 8.75 0.50 11.50 0.75 2.75 0.25 9.95 0.70 16 1 6.05 0.30 13.25 0.75 16 1 2.75 0.25 9.95 0.70 16 1 6.05 0.30 13.35 0.75 16.25 1 12.70 1.10 14 1.15 14 0.30 0 -0.45 0.30 -0.80 0.70 -0.80 0.40 0 0.80 -0.20 0.90 -0.45 0.30 -0.95 6.55 -0.85 37.65 0.45 11.25 0.45 14.25 0.80 14.25 1.55 0 0.60 3 -0.05 4.45 -0.95 0.70 -0.40 2.75 -0.80 4.75 -0.90 3.30 -0.20 3.45 -0.15 2.10 0.50 -1.30 0.60 -0.05 0.70 10.75 1 6.70 0.15 14.30 0.45 16.85 0.60 l4.60 0.30 8.40 4.75 c4.60 2.60 11.40 6.50 15.10 8.60 3.70 2.15 10.40 6 14.90 8.60 12.45 7.20 16.60 9.10 26.35 12.40 4.95 1.65 17.35 5.85 27.50 9.30 10.20 3.45 19.40 6.60 20.50 7 1.10 0.35 9.30 3.15 18.25 6.25 8.95 3.05 17.50 6 19 6.50 7.25 2.35 38.80 13.20 43 14.70 4.80 1.75 6 2.05 6 1.50z m-422.40 -38.20 c1.90 0 0.70 -0.35 -2.35 -0.75 l-3 -0.35 2 1.60 c1.90 1.50 2 1.55 2.15 0.55 0.10 -0.70 0.55 -1.05 1.20 -1.05z m55.15 1.50 c0.80 -0.35 0.65 -0.45 -0.85 -0.45 -1.05 -0.05 -1.90 0.20 -1.90 0.45 0 0.60 1.35 0.60 2.75 0z m35.50 -12.25 l2 -0.70 -2.10 -0.05 c-1.60 0 -2.15 0.20 -2.15 0.75 0 0.90 -0.20 0.90 2.25 0z m80.05 -28.35 c-3.90 -0.65 -4.30 -0.55 -4.30 1.05 l0 1.45 3.15 -1.10 3.15 -1.05 -2 -0.35z m-316.30 -33.55 c0 -0.10 -0.50 -0.60 -1.05 -1.15 -1.10 -0.95 -1.10 -0.95 -0.50 0.20 0.50 0.90 1.55 1.55 1.55 0.95z m-22.75 -22.85 c-0.50 -0.55 -1.15 -1 -1.40 -1 -0.30 0 0 0.55 0.65 1.25 1.35 1.45 2.10 1.25 0.75 -0.25z m-47.25 -59.35 c-0.05 -0.25 -0.45 -1.20 -1 -2.15 l-0.95 -1.75 -0.05 2.15 c0 1.75 0.15 2.10 1 2.10 0.55 0 1 -0.15 1 -0.35z"/>
  <path d="M469.25 530 c-0.15 -0.25 0.15 -0.50 0.75 -0.50 0.60 0 0.90 0.25 0.75 0.50 -0.15 0.30 -0.50 0.50 -0.75 0.50 -0.25 0 -0.60 -0.20 -0.75 -0.50z"/>
 </g>
 <g fill="#211f20">
  <path d="M305.85 644.40 l-36.40 -0.40 -4.90 -4.15 c-2.75 -2.25 -7.60 -6.25 -10.80 -8.85 -3.20 -2.60 -7.90 -6.45 -10.40 -8.50 -2.50 -2.05 -5.70 -4.65 -7.15 -5.75 -1.40 -1.10 -6.95 -5.60 -12.25 -10.05 -10.85 -9 -9.25 -6.85 -14.45 -19.70 -1.20 -2.90 -2.55 -6.20 -3.10 -7.35 -0.50 -1.15 -0.90 -2.30 -0.90 -2.50 -0.05 -0.20 -0.45 -1.30 -1 -2.40 -0.55 -1.10 -0.95 -2.20 -1 -2.45 0 -0.25 -0.45 -1.35 -1 -2.50 -0.50 -1.15 -2.90 -6.85 -5.25 -12.70 l-4.25 -10.65 0.50 -4.35 c0.25 -2.40 0.70 -6.15 0.95 -8.35 1.20 -10 1.35 -8.90 -1.05 -10.55 -2.50 -1.70 -19.55 -14.85 -21.40 -16.45 -1.60 -1.45 -4.30 -3.15 -3.90 -2.50 0.35 0.60 2.95 7.25 5.70 14.50 1 2.75 2.85 7.60 4.05 10.75 1.25 3.15 2.40 6.30 2.65 7 0.25 0.70 1.15 3.05 2 5.25 0.85 2.20 2.30 6.05 3.25 8.50 0.90 2.50 2.85 7.55 4.25 11.25 1.40 3.70 3.10 8.10 3.75 9.75 0.60 1.65 2.05 5.35 3.15 8.25 1.15 2.90 2.75 7.15 3.60 9.50 0.85 2.35 1.75 4.70 2 5.25 0.40 0.85 2.05 5.15 4.85 12.95 0.40 1.10 0.90 2.35 1.20 2.90 0.55 1.05 -0.25 1.20 -2.15 0.45 -0.65 -0.30 -4.50 -1.55 -8.65 -2.80 -4.10 -1.30 -10.20 -3.20 -13.50 -4.25 -3.30 -1.05 -9.35 -2.95 -13.50 -4.25 -22.70 -7.05 -21.75 -6.70 -25.25 -9.50 -5.90 -4.80 -33.85 -27.60 -39.15 -32 l-3 -2.50 -1.70 -8.25 c-0.90 -4.55 -2.70 -13.20 -3.90 -19.25 -1.25 -6.05 -2.60 -12.70 -3 -14.75 -0.45 -2.05 -1.10 -5.20 -1.45 -7 -0.40 -1.80 -1.20 -5.70 -1.80 -8.75 -0.60 -3 -1.55 -7.65 -2.15 -10.25 -1.20 -5.20 -1.30 -11.20 -0.35 -19.25 0.50 -4.45 1 -9.45 2 -20 0.80 -8.55 2.45 -25.15 2.80 -28.55 0.35 -3.05 -0.25 -4.90 -4.30 -13.95 -0.25 -0.55 -1.60 -3.70 -3 -7 -1.40 -3.30 -2.90 -6.65 -3.25 -7.50 -0.35 -0.80 -2.15 -5 -4 -9.25 -3.10 -7.25 -10.55 -24.30 -12.85 -29.55 -1.05 -2.45 -1.05 -2.80 0.35 -10.45 0.40 -2.05 1.15 -6.45 1.75 -9.75 0.55 -3.30 1.55 -9.15 2.20 -13 1.15 -6.50 1.85 -10.60 4.35 -25 1.10 -6.45 2.65 -15.35 3.95 -22.75 0.50 -2.90 1.05 -6.10 1.25 -7.15 0.20 -1.30 1.35 -3.15 3.90 -6.25 2 -2.40 12.30 -14.90 22.85 -27.80 10.60 -12.90 20.75 -25.25 22.60 -27.50 1.90 -2.20 3.90 -4.80 4.50 -5.65 1.30 -1.90 1.70 -2 2.15 -0.75 0.20 0.70 1.75 1.35 6.15 2.55 3.20 0.90 6.85 1.95 8.10 2.35 1.95 0.55 18.65 5.25 29.25 8.25 6.25 1.70 10.90 3.05 14.50 4.15 l3.50 1.05 40.10 66.75 c22.05 36.70 43.95 73.25 48.70 81.15 l8.65 14.45 11.50 8.60 c6.35 4.75 19.65 14.65 29.55 22.05 9.90 7.40 26 19.40 35.75 26.70 9.75 7.25 23.50 17.50 30.50 22.70 7 5.25 13.05 9.70 13.35 10 0.35 0.25 2.60 0.75 5 1.10 2.45 0.40 11.15 1.85 19.40 3.25 8.25 1.40 20.30 3.45 26.75 4.55 6.45 1.10 14.45 2.45 17.75 3 3.30 0.55 8.50 1.40 11.50 1.95 3.05 0.50 8.40 1.40 11.95 1.95 l6.45 1.05 6.05 -3.05 c3.35 -1.70 9.55 -4.85 13.80 -7.05 17.55 -9.10 21.25 -11 32.15 -16.65 l11.40 -5.85 24.60 -24.75 24.60 -24.70 7.75 0.50 c4.25 0.30 11.75 0.75 16.65 1.05 14.25 0.80 26.55 1.50 34.85 2 4.25 0.25 12.50 0.70 18.35 1 14.50 0.80 14.55 0.80 8.35 3.40 -8.45 3.50 -23.20 9.60 -28.70 11.85 -5.65 2.30 -11.50 4.70 -17.50 7.20 -2.05 0.90 -5.75 2.40 -8.25 3.35 -2.45 1 -4.75 2 -5.05 2.25 -0.30 0.25 -1.65 3.45 -2.95 7.10 -1.30 3.60 -2.75 7.80 -3.30 9.25 -0.50 1.40 -1.40 3.80 -1.90 5.25 -0.55 1.40 -2.35 6.55 -4.05 11.35 -1.70 4.80 -3.30 9.10 -3.55 9.60 -0.40 0.75 -5.80 3.90 -14.70 8.65 -5.25 2.80 -5.15 2.55 -1.60 6.25 11.45 11.90 30.70 32.30 31.25 33.05 0.35 0.50 1 4.80 1.45 9.95 l0.85 9 25.45 24.60 c13.95 13.55 25.15 24.70 24.85 24.80 -0.30 0.10 -1.50 -0.20 -2.65 -0.65 -1.15 -0.50 -4.70 -1.70 -7.85 -2.75 -3.15 -1.05 -10 -3.40 -15.25 -5.20 -5.20 -1.80 -13.10 -4.55 -17.50 -6 -4.40 -1.50 -10.70 -3.65 -14 -4.80 -15.35 -5.35 -33.75 -11.65 -35.95 -12.35 -1.55 -0.45 -3.40 -1.60 -5 -3.10 -43.10 -39.90 -47.85 -44.30 -48.50 -44.45 -0.70 -0.15 -6.05 1.60 -27.30 8.85 -8.10 2.80 -18.45 6.35 -23 7.85 -4.55 1.50 -8.90 3.05 -9.75 3.40 -1.65 0.75 -3.75 1.50 -7.50 2.65 -1.35 0.40 -2.95 0.95 -3.50 1.15 -0.55 0.20 -2.45 0.90 -4.25 1.50 -1.80 0.60 -3.65 1.30 -4.10 1.55 -0.50 0.25 -1.25 0.45 -1.65 0.45 -0.45 0 -1.75 0.45 -2.90 0.95 -1.20 0.55 -2.80 1.15 -3.60 1.30 -2.20 0.50 -8.90 2.80 -9.50 3.25 -0.25 0.20 -1.30 0.50 -2.25 0.70 -0.95 0.15 -2.40 0.65 -3.25 1.10 -0.80 0.45 -3.40 1.10 -5.75 1.50 -6.30 1.10 -10.55 2.55 -12.50 4.20 -0.95 0.85 -2.15 1.50 -2.65 1.50 -0.50 0 -1.40 0.25 -2 0.55 -0.55 0.35 -2.10 0.90 -3.35 1.25 -2.50 0.70 -8.20 2.60 -9.75 3.25 -0.55 0.20 -2.10 0.75 -3.50 1.15 -1.35 0.35 -3.15 1.05 -4 1.50 -0.80 0.45 -1.95 0.80 -2.50 0.80 -0.55 0 -1.55 0.30 -2.25 0.65 -0.70 0.35 -5.25 1.95 -10.15 3.55 -4.90 1.60 -9.50 3.20 -10.25 3.60 -0.75 0.40 -1.75 0.70 -2.20 0.70 -0.45 0 -2.70 0.70 -5 1.55 -7.55 2.85 -9.20 3.40 -11.90 4.25 -4.05 1.20 -7.20 2.25 -9.10 3.05 -1.05 0.45 -2.55 0.65 -3.50 0.50 -1.55 -0.25 -5.25 -0.75 -24.65 -3.35 -4.10 -0.55 -8.95 -1.20 -10.75 -1.50 -1.80 -0.25 -4.15 -0.50 -5.20 -0.50 l-1.95 0 0.95 1.05 c1.10 1.20 25.60 21.35 72.60 59.60 5 4.10 9.10 7.50 9.10 7.65 0 0.30 -48.40 0.10 -90.15 -0.40z m80.60 -3.55 c-2 -1.70 -10.05 -8.25 -55.20 -45.10 -12.10 -9.85 -23.45 -19.10 -25.20 -20.55 -1.70 -1.45 -3.55 -3.25 -4.05 -4.05 -0.45 -0.75 -6.10 -7.25 -12.50 -14.40 -6.35 -7.15 -12.80 -14.35 -14.25 -16 -2.45 -2.80 -4.10 -5.50 -9 -14.50 -1.05 -1.90 -4.45 -8.05 -7.55 -13.60 -3.15 -5.55 -5.70 -10.20 -5.70 -10.35 0 -0.15 -0.70 -1.45 -1.55 -2.90 -3.40 -5.75 -9.45 -17.05 -9.25 -17.25 0.10 -0.15 2.90 0.95 6.15 2.35 3.25 1.40 6.60 2.85 7.40 3.20 0.85 0.35 2.30 1 3.25 1.45 0.95 0.45 4.45 1.95 7.75 3.40 3.30 1.40 6.70 2.85 7.50 3.20 4.25 1.90 22.65 9.90 27 11.75 5.15 2.20 8.40 3.60 11 4.80 0.85 0.35 8 3.50 15.95 6.90 l14.50 6.30 14.25 0.75 c7.85 0.40 15.10 0.85 16.05 1 0.95 0.15 8.05 0.60 15.75 1 7.70 0.40 16.15 0.95 18.75 1.25 2.60 0.25 9.95 0.70 16.25 1 6.35 0.25 13.85 0.70 16.75 1 2.90 0.25 10.45 0.70 16.75 1 6.35 0.30 12.30 0.65 13.25 0.75 0.95 0.15 5 0.50 8.95 0.75 l7.20 0.45 7.30 -2.45 c4 -1.35 14.30 -4.85 22.80 -7.75 8.55 -2.95 18.10 -6.20 21.25 -7.25 3.15 -1.05 9.30 -3.15 13.70 -4.70 l7.90 -2.75 10.60 9.85 c20.20 18.85 36.55 34 38.80 36 1.50 1.40 3.50 2.50 6 3.40 2.05 0.70 4.20 1.50 4.75 1.75 0.55 0.20 7.40 2.55 15.25 5.20 7.85 2.65 18.40 6.25 23.50 8 19.80 6.80 35.75 12.20 35.80 12.10 0.05 -0.05 -9.30 -9.20 -20.85 -20.35 -20.60 -19.90 -20.95 -20.25 -21.20 -22.50 -0.15 -1.25 -0.50 -3.80 -0.75 -5.75 -0.25 -1.90 -0.65 -5.20 -0.80 -7.25 l-0.35 -3.70 -7.55 -8 c-4.15 -4.40 -12.45 -13.15 -18.45 -19.40 -9.60 -10 -11.50 -12.40 -9.90 -12.40 0.30 0 11.70 -6.25 19.55 -10.70 1 -0.60 1.95 -2.60 4.90 -10.90 2.05 -5.55 3.95 -10.95 4.35 -11.90 0.65 -1.80 1.60 -4.40 5.40 -15 l2.20 -6.25 5.20 -2.15 c2.85 -1.15 5.55 -2.25 5.95 -2.45 0.40 -0.15 1.55 -0.65 2.50 -1.05 0.95 -0.40 4.10 -1.65 7 -2.85 2.90 -1.15 7.50 -3.05 10.25 -4.20 2.75 -1.15 9 -3.75 13.85 -5.70 4.90 -2 8.90 -3.75 8.90 -3.90 0 -0.35 -13.45 -1.25 -28.25 -1.95 -6.05 -0.30 -13.60 -0.75 -16.75 -1 -3.15 -0.25 -11.45 -0.70 -18.45 -1.05 l-12.70 -0.55 -24.05 24.05 c-13.25 13.25 -24.70 24.50 -25.55 24.95 -0.80 0.50 -7.55 4.05 -15 7.85 -7.40 3.80 -15.50 7.95 -18 9.25 -2.45 1.30 -9.65 5 -16 8.25 -6.30 3.25 -12.25 6.30 -13.15 6.75 -1.45 0.80 -1.95 0.80 -5.25 0.20 -1.95 -0.40 -5.85 -1.05 -8.60 -1.50 -2.75 -0.40 -5.80 -0.95 -6.75 -1.20 -0.95 -0.20 -3.75 -0.70 -6.20 -1 -2.50 -0.30 -4.65 -0.65 -4.85 -0.80 -0.20 -0.10 -3.25 -0.65 -6.80 -1.20 -8.65 -1.40 -11.60 -1.90 -35.90 -6 -11.55 -1.95 -22.35 -3.80 -23.95 -4.05 -1.65 -0.30 -3.25 -0.65 -3.60 -0.85 -0.50 -0.30 -18.20 -13.45 -43.85 -32.65 -5 -3.75 -18.45 -13.75 -29.85 -22.25 -11.40 -8.55 -26.95 -20.15 -34.50 -25.80 l-13.75 -10.25 -16.85 -28.20 c-9.30 -15.50 -24.85 -41.45 -34.60 -57.70 l-17.65 -29.50 -1.95 -0.25 c-1.75 -0.25 -2.05 -0.55 -3.75 -3.50 -1.95 -3.40 -2 -4 -0.40 -4 1.30 0 1.20 -0.65 -0.35 -3 -1.10 -1.65 -1.50 -1.95 -2.55 -1.70 -1 0.30 -1.65 -0.15 -3.90 -2.55 -2.55 -2.65 -7.45 -10.20 -7 -10.65 0.10 -0.15 1.10 0.15 2.25 0.60 2.95 1.15 3.15 1 1.90 -1.20 -0.95 -1.65 -1.75 -2.20 -4.55 -3.35 -3.20 -1.30 -3.60 -1.65 -5.90 -5.05 -2.15 -3.20 -2.35 -3.75 -1.80 -4.65 0.30 -0.55 1.10 -1.10 1.75 -1.25 1.45 -0.40 1.40 -0.95 -0.35 -3.70 -1.60 -2.60 1.30 -1.55 -25.05 -8.95 -16.40 -4.60 -20.60 -5.80 -24.75 -7.10 -3.65 -1.10 -8.95 -2.45 -9.65 -2.45 -0.35 0 -0.35 0.45 -0.05 1.35 0.50 1.40 2.70 10.60 6.70 27.65 1.20 5.10 3.40 14.65 4.95 21.25 1.55 6.60 3.30 13.90 3.85 16.25 0.55 2.35 1.20 5.05 1.45 6 2.50 8.80 2.70 12.75 1.05 22.50 -0.60 3.70 -1.40 9 -1.80 11.75 -0.40 2.75 -1.05 6.90 -1.45 9.25 -0.45 2.35 -1 5.85 -1.30 7.75 -0.30 1.95 -0.95 6.20 -1.50 9.50 -3 19.05 -2.95 18.25 -1.55 22.55 0.55 1.60 1.35 4.30 1.80 5.95 1.05 3.80 2.35 8.45 3.75 13.25 0.60 2.05 1.50 5.35 2.05 7.25 0.85 3.25 1.35 4.95 3.95 14.10 0.50 1.90 1.40 5 1.95 6.90 1.65 6 2.90 10.35 4.30 15 0.70 2.50 1.85 6.65 2.55 9.25 1.30 4.85 1.70 5.60 11.95 22.75 1.95 3.30 4.05 6.90 4.65 8 1.05 1.90 5.50 22.75 10.35 48.25 0.80 4.35 3.05 15.45 3.65 18 0.30 1.20 0.20 1.90 -0.20 2.25 -0.35 0.30 -0.85 3.10 -1.20 7 -0.30 3.60 -0.75 7.65 -1 9.10 -0.45 2.45 -0.30 2.90 2.55 10 1.65 4.05 3.35 8.10 3.75 9 0.35 0.85 0.70 1.70 0.70 1.90 0 0.20 0.30 1.05 0.70 1.90 0.90 1.90 2.50 5.85 6.05 14.60 5.55 13.65 6.35 15.50 6.85 16.15 0.30 0.35 5.65 4.80 11.85 9.80 6.20 5.05 14 11.40 17.30 14.15 3.30 2.70 10.20 8.35 15.35 12.55 l9.35 7.60 19.15 0.05 c10.55 0.05 28.95 0.25 40.90 0.40 11.95 0.20 29.65 0.40 39.25 0.45 l17.50 0.05 -1.30 -1.10z m-182.95 -35.15 c0 -0.15 -0.40 -1.30 -0.95 -2.60 -0.50 -1.30 -2 -5.15 -3.30 -8.60 -1.30 -3.45 -3.15 -8.25 -4.10 -10.75 -0.95 -2.45 -2.50 -6.50 -3.40 -9 -0.95 -2.45 -2.40 -6.30 -3.25 -8.50 -0.85 -2.20 -1.75 -4.55 -2 -5.25 -0.25 -0.70 -1.15 -3.05 -2 -5.25 -0.85 -2.20 -1.75 -4.65 -2.05 -5.50 -0.25 -0.80 -0.65 -1.95 -0.95 -2.50 -0.25 -0.55 -1.35 -3.35 -2.40 -6.25 -2.05 -5.45 -10.80 -28.55 -12.85 -33.75 -0.65 -1.65 -1.45 -3.95 -1.85 -5.15 -0.60 -1.95 -2.80 -4.15 -21.60 -21.25 -11.55 -10.50 -21.95 -19.95 -23.10 -20.95 -1.35 -1.25 -3.35 -4.20 -6 -9 -2.15 -3.90 -4.05 -7.35 -4.15 -7.65 -0.20 -0.40 -8.45 -15.30 -11.25 -20.25 -0.40 -0.65 -0.90 -1.30 -1.15 -1.35 -0.25 -0.10 -0.85 3.95 -1.35 8.95 -0.50 5.05 -1.30 13.30 -1.80 18.40 -0.55 5.10 -1.35 13.20 -1.85 18 -1.10 10.80 -1.10 12.05 0.25 18.25 0.60 2.75 1.65 7.70 2.30 11 5.15 24.90 8.10 39.35 9.70 47.45 l1.85 9.45 20.25 16.50 c11.15 9.10 21.15 17.25 22.25 18.15 1.10 0.90 3.25 1.95 4.75 2.35 2.60 0.70 11.35 3.45 34.50 10.85 14.40 4.55 15.50 4.85 15.50 4.20z m157.75 -28.40 c1.90 -0.75 2.75 -1.30 2.25 -1.50 -0.70 -0.30 -3.90 -0.80 -20.25 -3.30 -6.15 -0.95 -11.45 -2.30 -24.75 -6.35 -11.70 -3.55 -18.85 -5.65 -20.35 -6 -0.65 -0.15 -1.15 -0.10 -1.15 0.10 0 0.25 4.65 5.60 9.75 11.15 0.55 0.60 5.20 1.40 19.75 3.35 3.45 0.45 9.50 1.30 13.50 1.85 12.35 1.65 13.20 1.75 15.75 1.80 1.50 0.05 3.65 -0.40 5.50 -1.10z m22.65 -7.75 c8 -2.75 14.95 -5.20 15.40 -5.45 0.70 -0.40 0.50 -0.55 -1.10 -0.75 -3.70 -0.55 -10.95 -1.30 -17.95 -1.85 -3.85 -0.30 -8.25 -0.75 -9.75 -1 -1.50 -0.25 -6 -0.70 -10 -1 -10.85 -0.75 -22.55 -2.25 -23.90 -3 -0.45 -0.25 -4.55 -1.70 -9.10 -3.20 -8.60 -2.85 -26.85 -9.05 -42.15 -14.30 -4.95 -1.70 -9.15 -3 -9.40 -2.90 -0.25 0.10 2.75 3.75 6.65 8.20 3.95 4.40 8.10 9.05 9.25 10.40 1.55 1.80 2.70 2.55 4.50 3.05 1.30 0.35 4 1.15 5.90 1.75 1.95 0.55 4.50 1.35 5.75 1.70 5.25 1.60 11.25 3.35 18.50 5.55 8.40 2.50 8.90 2.60 19 4.25 3.70 0.55 9.45 1.50 12.75 2 8.20 1.35 8.30 1.35 9.80 1.45 0.75 0 7.85 -2.20 15.85 -4.90z m27.20 -9.30 c14.40 -4.80 29.80 -10.15 30.60 -10.60 0.70 -0.35 -0.50 -0.60 -4.50 -0.80 -9.30 -0.55 -51.35 -3.40 -66.95 -4.60 -5.50 -0.40 -13.80 -1 -18.45 -1.25 -8.25 -0.50 -8.60 -0.55 -14.75 -2.80 -7.40 -2.70 -13.50 -4.95 -16.30 -6 -1.10 -0.45 -2.90 -1.10 -4 -1.45 -1.10 -0.40 -3.45 -1.25 -5.25 -1.90 -1.80 -0.65 -12.35 -4.55 -23.50 -8.60 -11.15 -4.05 -21.20 -7.75 -22.35 -8.20 -1.15 -0.40 -2.25 -0.60 -2.40 -0.45 -0.20 0.20 2.10 4.70 5.05 10 l5.45 9.65 6.75 2.25 c3.70 1.25 11.95 4.05 18.25 6.20 45.70 15.65 40.05 14.10 58.50 15.80 5.80 0.55 12.65 1.20 15.25 1.45 2.60 0.30 7.55 0.75 11 1.10 3.45 0.30 9.20 0.85 12.75 1.20 9.40 0.90 9.20 0.90 14.85 -1z m45.55 -15.55 c5.25 -1.80 11.95 -4.05 14.80 -5 4.80 -1.60 7.15 -2.60 6.55 -2.75 -0.50 -0.10 -21.90 -1.45 -35 -2.15 -7.30 -0.45 -15.85 -1 -19 -1.30 -3.15 -0.25 -10.60 -0.75 -16.50 -1 -5.90 -0.30 -13 -0.75 -15.75 -1 -2.75 -0.25 -9.95 -0.70 -16 -1 -6.05 -0.30 -13.25 -0.75 -16 -1 -2.75 -0.25 -7.90 -0.60 -11.50 -0.75 l-6.50 -0.35 -7.25 -3.15 c-25.05 -10.85 -39.15 -17 -44.50 -19.35 -1.25 -0.55 -2.70 -1.20 -3.25 -1.40 -1.50 -0.65 -12.80 -5.50 -14.50 -6.25 -11.45 -4.95 -18.45 -8 -20.35 -8.85 -1.35 -0.60 -2.50 -0.95 -2.65 -0.80 -0.25 0.25 11 20.80 11.95 21.70 0.50 0.50 2.55 1.30 16.30 6.25 2.90 1 7.15 2.55 9.50 3.45 2.35 0.85 5.40 1.95 6.75 2.45 1.40 0.50 6.35 2.35 11 4.05 4.70 1.70 10.85 3.95 13.75 5 2.90 1.05 9.60 3.45 14.85 5.40 7.60 2.80 10.45 3.60 13.50 3.80 2.15 0.20 6.60 0.55 9.90 0.85 3.30 0.25 11.20 0.80 17.50 1.20 13.45 0.85 29.45 1.95 43.50 3 5.50 0.40 14.15 1 19.25 1.30 5.10 0.30 9.35 0.65 9.45 0.75 0.30 0.30 -0.10 0.40 10.20 -3.10z m-262.85 -29.05 l-0.80 -3.90 -5.65 -5.50 c-3.05 -3 -13.10 -12.90 -22.25 -22 l-16.65 -16.50 -4.90 -8 c-2.70 -4.40 -5.50 -9 -6.25 -10.25 -1.25 -2.15 -4.70 -7.80 -16.15 -26.50 -5.70 -9.30 -4.75 -6.35 -10.70 -33.25 -0.55 -2.45 -1.45 -6.30 -1.95 -8.50 -0.90 -3.70 -2.55 -11 -4.25 -18.75 -0.40 -1.80 -1.20 -5.15 -1.70 -7.50 -0.55 -2.35 -1.55 -6.85 -2.30 -10 -0.70 -3.15 -1.60 -7.10 -2 -8.75 -3.50 -15.10 -3.40 -14.70 -2.55 -18.75 0.45 -2.05 3.30 -16.25 6.30 -31.50 3 -15.25 5.95 -30.10 6.55 -33 4.30 -21.30 5 -25.10 4.80 -25.30 -0.15 -0.20 -15.15 17.80 -21.05 25.20 -0.70 0.90 -1.25 3.10 -1.90 7.80 -0.50 3.60 -1.35 9.70 -1.90 13.55 -1.55 10.70 -2.85 19.80 -3.95 27.50 -0.55 3.85 -1.20 8.15 -1.50 9.50 -0.30 1.65 -0.30 7.45 0 16.75 0.30 7.85 0.70 19.30 0.90 25.50 0.40 12.05 0.30 11.60 3.85 19.35 0.40 0.85 0.70 1.70 0.70 1.90 0 0.15 0.45 1.25 0.95 2.40 0.55 1.15 2.10 4.90 3.45 8.35 1.40 3.45 3.70 9.05 5.10 12.50 1.40 3.45 4.25 10.40 6.30 15.50 2.05 5.10 4.05 9.95 4.40 10.75 0.40 0.85 0.85 2.05 1.05 2.70 0.90 3 3.65 7.15 12.75 19.30 5.35 7.10 10.10 13.45 10.50 14.05 2.80 4.15 16.75 22.40 18.95 24.80 4.20 4.50 15.95 14.70 24.30 21.05 4.15 3.10 9.85 7.50 12.70 9.75 2.90 2.25 5.35 4 5.45 3.90 0.10 -0.15 -0.15 -2 -0.60 -4.15z m-2.55 -13.05 c-0.50 -2.40 -1.20 -4.95 -1.55 -5.70 -0.40 -0.75 -8.20 -12.70 -17.35 -26.50 -34.75 -52.40 -35.45 -53.55 -36.15 -56.15 -0.35 -1.35 -1.15 -4.30 -1.70 -6.50 -0.60 -2.20 -1.50 -5.55 -2 -7.50 -0.55 -1.90 -1.45 -5.30 -2 -7.50 -0.60 -2.20 -1.50 -5.55 -2 -7.50 -0.90 -3.40 -9.30 -34.65 -10.80 -40.25 -0.90 -3.25 -2.70 -10.10 -4.45 -16.85 -1.40 -5.50 -1.55 -3.30 1.30 -19.15 0.50 -2.90 1.15 -6.60 1.45 -8.25 0.25 -1.65 0.90 -5.45 1.45 -8.50 2.25 -12.40 3.05 -16.85 4.30 -24 0.75 -4.10 1.90 -10.55 2.55 -14.25 0.65 -3.70 1.65 -9.35 2.20 -12.50 0.60 -3.15 1.50 -8.20 2.05 -11.25 0.55 -3 1.30 -7.50 1.70 -10 0.40 -2.45 1.05 -6.05 1.45 -8 0.40 -1.90 0.90 -4.75 1.05 -6.25 0.35 -3.30 1.25 -4.15 -8.85 8.25 l-7.70 9.50 -1.40 7 c-0.75 3.85 -1.65 8.45 -2.05 10.25 -0.40 1.80 -0.95 4.70 -1.25 6.50 -0.30 1.80 -0.75 4.05 -1 5 -0.25 0.95 -1.50 7.15 -2.75 13.75 -1.25 6.60 -2.75 14.05 -3.25 16.50 -2.45 11.65 -7.20 35.70 -7.40 37.55 -0.10 1.35 0.95 6.95 3.10 16.50 1.80 7.95 3.75 16.50 4.30 18.95 0.60 2.50 1.35 5.85 1.75 7.50 0.40 1.65 1.10 4.60 1.50 6.50 1.85 8.55 6.85 30.80 9.10 40.50 0.60 2.65 1.80 5.10 4.90 10.25 6.10 10 11.20 18.50 13.75 22.70 1.25 2.10 4.95 8.20 8.25 13.60 l6 9.85 21 20.70 c11.55 11.40 21.05 20.45 21.15 20.15 0.10 -0.30 -0.20 -2.50 -0.65 -4.90z m-4.50 -22.05 c-1.85 -8.95 -2.45 -11.10 -3.60 -12.75 -0.80 -1.15 -2.75 -3.95 -4.40 -6.30 -1.60 -2.35 -3.75 -5.35 -4.70 -6.75 -0.95 -1.35 -4.85 -6.95 -8.60 -12.35 l-6.80 -9.85 -3.60 -10.90 c-1.95 -6 -8.30 -25.10 -14.05 -42.45 l-10.45 -31.55 0.45 -3.95 c0.25 -2.15 0.80 -8 1.25 -12.95 0.40 -4.95 0.95 -10.70 1.25 -12.75 0.25 -2.05 0.70 -6.65 1 -10.25 0.25 -3.55 0.80 -9.85 1.25 -14 1.40 -14.20 2.70 -28 3 -31.75 0.15 -2.05 0.60 -6.90 1 -10.75 0.40 -3.85 0.95 -9.70 1.25 -13.05 0.60 -6.50 0.65 -6.15 -2.55 -19.45 -0.50 -2.20 -1.30 -5.70 -1.75 -7.75 -0.45 -2.05 -1.05 -4.20 -1.35 -4.75 -0.60 -1.10 -0.60 -1 -2.80 11.50 -0.55 3.05 -1.45 8.15 -2 11.40 -0.60 3.20 -1.50 8.40 -2.05 11.50 -0.55 3.05 -1.40 8.10 -1.95 11.10 -2 11.10 -3.60 20.15 -4.55 25.50 -0.55 3.05 -1.45 8 -1.95 11 -0.55 3.05 -1.60 8.75 -2.30 12.75 -0.70 4 -1.75 9.85 -2.35 13 -1.40 7.20 -1.40 10.75 -0.05 15.50 1 3.50 7.60 27.95 12.25 45.50 1.15 4.25 2.45 9.20 2.95 11 0.45 1.80 1.75 6.75 2.85 11 1.15 4.25 2.80 10.45 3.70 13.75 l1.70 6 11.60 17.40 c6.40 9.60 15.35 23.10 19.95 30 14.75 22.40 18.20 27.50 18.40 27.25 0.10 -0.10 -0.85 -5 -2 -10.85z m-44.05 -4.15 c-0.50 -0.85 -24.25 -32.70 -29 -38.95 -2 -2.65 -4 -5.70 -4.35 -6.75 -0.65 -1.80 -4.70 -11.80 -9 -22.20 -4.50 -10.95 -10.60 -26 -11.40 -28.25 -0.55 -1.35 -1.15 -2.85 -1.40 -3.25 -0.25 -0.45 -1.45 -3.40 -2.75 -6.60 l-2.35 -5.85 -0.45 -15.90 c-0.25 -8.75 -0.60 -20 -0.80 -25.05 -0.25 -6.20 -0.15 -10.45 0.25 -13.25 0.30 -2.25 0.95 -6.45 1.35 -9.35 1.10 -7.70 2.50 -17.30 3.65 -25.25 0.55 -3.85 1.20 -8.25 1.50 -9.75 0.60 -3.50 1.20 -9.30 0.90 -9 -1.25 1.35 -4.85 6.05 -5.25 6.80 -0.25 0.50 -0.65 2.10 -0.85 3.45 -0.15 1.40 -0.75 4.85 -1.25 7.75 -0.55 2.90 -1.40 7.95 -1.95 11.25 -0.60 3.30 -1.60 9.25 -2.30 13.25 -2.20 12.45 -3.15 18.05 -4.25 24.50 -0.60 3.45 -1.50 8.60 -2 11.50 -0.55 2.90 -1.25 7.20 -1.55 9.55 l-0.65 4.35 3.05 7.15 c3.10 7.30 12.65 29.45 13.85 32.20 1.85 4.10 3 6.70 6.30 14.50 4.15 9.75 5.90 13.30 10.25 21 1.70 3.05 3.85 6.85 4.70 8.50 0.90 1.65 4.25 7.65 7.40 13.35 l5.75 10.35 10.05 9.10 c5.55 5.05 10.65 9.65 11.30 10.30 1.30 1.25 1.80 1.50 1.25 0.55z m40.50 -13.25 c-0.15 -1.05 -0.60 -2.40 -1 -3 -0.35 -0.60 -1.10 -1.85 -1.65 -2.75 -0.50 -0.90 -3.90 -6.70 -7.50 -12.90 -3.60 -6.20 -6.80 -12.15 -7.10 -13.25 -0.25 -1.10 -0.95 -3.55 -1.45 -5.50 -1.90 -6.70 -3.10 -11 -4.10 -14.50 -0.55 -1.90 -5.65 -17.45 -11.25 -34.50 -11.10 -33.50 -10.65 -31.55 -9.65 -40 0.25 -2.20 0.80 -8.75 1.20 -14.55 0.80 -10.50 0.80 -10.55 5.05 -27.50 2.35 -9.30 4.60 -18 4.95 -19.25 0.65 -2.15 0.60 -2.75 -1.45 -11.25 -1.20 -4.90 -3 -12.50 -4 -16.85 -1.05 -4.35 -2.05 -7.75 -2.25 -7.50 -0.20 0.20 -0.75 4.35 -1.20 9.15 -0.45 4.80 -1.15 12.25 -1.60 16.50 -0.40 4.25 -0.95 10.45 -1.25 13.75 -0.25 3.30 -0.70 8.05 -1 10.50 -0.25 2.50 -0.80 8.35 -1.20 13 -0.40 4.70 -1.05 11.45 -1.45 15 -0.45 3.60 -1 9.30 -1.25 12.75 -0.30 3.45 -0.80 8.75 -1.10 11.75 l-0.55 5.50 11.80 35.50 c6.50 19.55 12.75 38.45 13.95 42.05 l2.15 6.55 11.50 16.55 c6.30 9.15 11.50 16.60 11.60 16.60 0.10 0 0 -0.85 -0.20 -1.85z m-38.90 -108.95 c-0.85 -2.55 -0.95 -1.45 1.70 -17.95 0.55 -3.30 1.80 -11.15 2.80 -17.50 1 -6.30 2.25 -14.20 2.75 -17.50 2.45 -15.05 2.55 -15.85 1.90 -19.25 -0.70 -3.95 -1.20 -5.10 -1.65 -3.70 -1.40 4.55 -8.05 31.65 -8.35 34.20 -0.55 4.45 -2.45 27.10 -2.55 30.55 -0.05 2.55 0.75 5.70 2.95 11.85 1.05 2.90 1.45 2.25 0.45 -0.70z"/>
  <path d="M489.75 530.40 c-2.60 -0.35 -4.25 -1.70 -4.25 -3.45 0 -1.30 0.50 -1.40 3.10 -0.60 1.80 0.50 2.60 1.05 3.15 2.20 0.45 0.85 0.75 1.70 0.65 1.90 -0.10 0.15 -1.25 0.15 -2.65 -0.05z"/>
  <path d="M468.70 528.90 c-0.45 -0.90 -1.50 -2.65 -2.35 -3.80 -1.30 -2 -1.40 -2.30 -0.80 -3.45 0.85 -1.55 2.15 -2.25 3.80 -2.05 1.25 0.15 1.40 0.40 1.95 3.80 0.50 3.10 0.50 3.95 -0.10 5.40 -0.90 2.10 -1.45 2.15 -2.50 0.10z"/>
  <path d="M477.30 526.80 c-2.20 -0.70 -4 -3.30 -2.95 -4.35 0.75 -0.75 5.85 1.60 6.65 3 1.05 2.05 -0.10 2.45 -3.70 1.35z"/>
  <path d="M495.55 524.55 c-0.30 -0.50 -1.35 -1.30 -2.35 -1.80 -1.65 -0.75 -1.80 -1 -1.50 -2.35 0.15 -0.85 0.30 -1.85 0.30 -2.20 0 -0.50 0.45 -0.60 1.65 -0.35 2.05 0.35 2.60 0.95 3.15 3.40 0.80 3.40 -0.05 5.60 -1.25 3.30z"/>
  <path d="M485.10 523.35 c-0.85 -0.90 -0.95 -1.30 -0.50 -1.75 0.90 -0.90 1.80 -0.75 2.40 0.35 0.50 0.95 0.20 2.55 -0.45 2.55 -0.20 0 -0.85 -0.50 -1.45 -1.15z"/>
  <path d="M500.85 521.10 c-0.95 -1 -0.70 -2.60 0.40 -2.60 0.90 0 1.85 1.30 1.65 2.30 -0.20 1.25 -1.10 1.35 -2.05 0.30z"/>
  <path d="M512.75 520 c-0.70 -0.80 -0.75 -1.10 -0.25 -1.75 0.85 -1.05 2.50 -0.05 2.50 1.50 0 1.50 -1 1.60 -2.25 0.25z"/>
  <path d="M505.30 517.10 c-1.95 -0.65 -2.60 -1.15 -2.95 -2.25 -0.70 -2.20 0.10 -2.60 3.05 -1.55 1.90 0.70 2.70 1.30 3.30 2.50 0.65 1.45 0.65 1.65 0 1.90 -0.45 0.15 -0.80 0.30 -0.85 0.30 -0.05 -0.05 -1.20 -0.45 -2.55 -0.90z"/>
  <path d="M515.50 514.80 c-1.95 -0.70 -3.50 -3 -2.55 -3.95 1.30 -1.30 7.05 1.85 7.05 3.90 0 0.90 -2 0.95 -4.50 0.05z"/>
  <path d="M207.75 441.70 c-1.90 -0.40 -6 -1.20 -9.10 -1.80 l-5.55 -1.05 -3.55 -8.90 c-1.95 -4.85 -3.55 -9.10 -3.55 -9.40 0 -0.35 1.50 -2.45 3.35 -4.70 8.60 -10.60 9.75 -11.85 10.35 -11.45 7.75 6.10 20.60 16.85 20.70 17.40 0.10 0.40 -1.45 5.25 -3.40 10.70 -4.10 11.30 -3.20 10.40 -9.25 9.20z m4.20 -4.30 c0.25 -0.90 1.50 -4.45 2.80 -7.90 1.25 -3.40 2.20 -6.45 2.05 -6.75 -0.35 -1 -17.15 -14.60 -17.50 -14.20 -4.60 5.50 -9.80 12.15 -9.80 12.60 0 0.35 1.35 3.85 2.95 7.85 l2.95 7.25 3.40 0.60 c1.90 0.35 5.15 0.95 7.20 1.35 5.35 1 5.40 1 5.95 -0.80z"/>
  <path d="M186.40 389.65 c-2.50 -0.15 -2.95 -0.35 -3.15 -1.30 -0.15 -0.60 -0.45 -2.20 -0.75 -3.50 l-0.50 -2.40 2.80 -3.45 c1.55 -1.95 2.95 -3.50 3.15 -3.50 0.20 0 1.85 1.25 3.70 2.75 l3.30 2.75 -1.70 3.85 c-1.95 4.25 -2.60 5.20 -3.45 5.05 -0.30 -0.05 -1.85 -0.15 -3.40 -0.25z"/>
  <path d="M225.75 288.80 c-2.25 -3.65 -2.30 -3.75 -1.55 -5.20 0.80 -1.55 3.50 -2.65 4.25 -1.80 0.50 0.55 1.55 5.40 1.55 6.95 0 1.40 -1 3.75 -1.55 3.75 -0.20 0 -1.40 -1.65 -2.70 -3.70z"/>
  <path d="M214.30 282.80 c-1.90 -0.60 -2.70 -1.55 -2.75 -3.40 -0.10 -2 5.15 -0.30 6.45 2.10 1.05 2 -0.10 2.40 -3.70 1.30z"/>
  <path d="M221.40 281.30 c-0.50 -0.35 -0.90 -1 -0.90 -1.45 0 -1.40 1.10 -1.55 2.10 -0.35 1.45 1.80 0.55 3.15 -1.20 1.80z"/>
  <path d="M203.80 274.65 c-2.30 -3.70 -2.35 -3.90 -1.65 -5.15 0.75 -1.20 4 -2.55 4.65 -1.90 0.15 0.20 0.55 2 0.80 4.10 0.40 2.90 0.40 4.10 -0.10 5.25 -0.35 0.85 -0.75 1.55 -0.95 1.55 -0.15 0 -1.40 -1.75 -2.75 -3.85z"/>
  <path d="M216 276.45 c-0.95 -0.80 -2.05 -1.70 -2.40 -2 -0.35 -0.30 -0.50 -1 -0.30 -1.85 0.50 -2 0.95 -2.30 2.80 -1.80 1.35 0.40 1.70 0.85 2.25 2.65 0.60 2.05 0.45 4.55 -0.30 4.55 -0.15 0 -1.10 -0.70 -2.05 -1.55z"/>
  <path d="M222.65 276.10 l-1.60 -1.40 1.05 -3.35 c0.55 -1.85 1.20 -3.35 1.40 -3.35 0.65 0 2.50 3.45 2.50 4.65 0 1.50 -0.95 4.85 -1.40 4.85 -0.20 -0.05 -1.05 -0.65 -1.95 -1.40z"/>
  <path d="M213.60 266.20 c-2.05 -1.70 -3.60 -3.35 -3.60 -3.85 0 -1.45 0.90 -2.80 2.45 -3.60 l1.45 -0.75 2.05 3.75 c1.75 3.20 2 3.95 1.65 5.50 l-0.35 1.85 -3.65 -2.90z"/>
  <path d="M201.25 262.40 c-0.80 -0.60 -1.65 -1.30 -1.80 -1.55 -0.45 -0.65 1.65 -6.90 2.25 -6.70 0.30 0.10 0.95 0.90 1.45 1.75 0.75 1.25 0.85 2.10 0.55 4.55 -0.15 1.70 -0.45 3.05 -0.65 3.05 -0.15 0 -0.95 -0.50 -1.80 -1.10z"/>
  <path d="M206 254.60 c-1.75 -0.85 -1.75 -0.85 -1.75 -4.20 0 -1.90 0.20 -3.40 0.40 -3.40 1.20 0 3.35 2.25 3.80 3.90 1.10 4.50 1.10 4.60 0.20 4.60 -0.50 0 -1.70 -0.40 -2.65 -0.90z"/>
  <path d="M191.60 252.15 c-1.65 -1.35 -3.15 -2.65 -3.30 -3 -0.50 -1.15 0.50 -3.25 2.05 -4.20 l1.55 -1 1.25 2.15 c2.50 4.30 2.85 5.30 2.55 6.85 -0.20 0.85 -0.50 1.55 -0.70 1.55 -0.20 0 -1.75 -1.05 -3.40 -2.35z"/>
  <path d="M195.90 241.20 c-1.90 -1.55 -3.40 -3 -3.40 -3.25 0 -1.30 1.15 -3 2.50 -3.70 0.90 -0.45 1.65 -0.75 1.70 -0.65 0.10 0.10 0.95 1.60 1.95 3.40 1.50 2.70 1.75 3.60 1.50 5.15 -0.15 1 -0.40 1.85 -0.60 1.85 -0.15 0 -1.80 -1.30 -3.65 -2.80z"/>
  <path d="M184.15 240.90 l-1.65 -0.55 0 -3.95 0 -3.95 1.95 1.55 c1.95 1.55 2.55 3.05 2.55 6.05 0 1.55 -0.30 1.65 -2.85 0.85z"/>
  <path d="M189 230.30 l-1.75 -0.65 -0.15 -3.80 c-0.10 -2.15 0.05 -3.85 0.30 -3.85 0.20 0 1.10 0.75 2 1.65 1.10 1.15 1.75 2.40 2.10 4.30 0.25 1.50 0.50 2.75 0.50 2.85 0 0.35 -1.20 0.15 -3 -0.50z"/>
 </g>
</svg>